<svg width="158" height="28" viewBox="0 0 158 28" fill="none" xmlns="http://www.w3.org/2000/svg">
<path d="M33.7671 6.45455H37.5597L41.5654 16.2273H41.7359L45.7416 6.45455H49.5342V21H46.5512V11.5327H46.4305L42.6663 20.929H40.635L36.8708 11.4972H36.7501V21H33.7671V6.45455ZM51.5679 21V6.45455H61.3691V8.99006H54.6432V12.456H60.8648V14.9915H54.6432V18.4645H61.3975V21H51.5679ZM79.8296 21V6.45455H82.9049V12.456H89.1478V6.45455H92.216V21H89.1478V14.9915H82.9049V21H79.8296ZM113.075 13.7273C113.075 15.3134 112.774 16.6629 112.173 17.7756C111.576 18.8883 110.762 19.7382 109.73 20.3253C108.702 20.9077 107.547 21.1989 106.264 21.1989C104.971 21.1989 103.811 20.9053 102.784 20.3182C101.756 19.7311 100.944 18.8812 100.348 17.7685C99.7512 16.6558 99.4529 15.3087 99.4529 13.7273C99.4529 12.1411 99.7512 10.7917 100.348 9.67898C100.944 8.56629 101.756 7.71875 102.784 7.13636C103.811 6.54924 104.971 6.25568 106.264 6.25568C107.547 6.25568 108.702 6.54924 109.73 7.13636C110.762 7.71875 111.576 8.56629 112.173 9.67898C112.774 10.7917 113.075 12.1411 113.075 13.7273ZM109.957 13.7273C109.957 12.6998 109.803 11.8333 109.495 11.1278C109.192 10.4223 108.764 9.88731 108.21 9.52273C107.656 9.15814 107.007 8.97585 106.264 8.97585C105.521 8.97585 104.872 9.15814 104.318 9.52273C103.764 9.88731 103.333 10.4223 103.025 11.1278C102.722 11.8333 102.571 12.6998 102.571 13.7273C102.571 14.7547 102.722 15.6212 103.025 16.3267C103.333 17.0322 103.764 17.5672 104.318 17.9318C104.872 18.2964 105.521 18.4787 106.264 18.4787C107.007 18.4787 107.656 18.2964 108.21 17.9318C108.764 17.5672 109.192 17.0322 109.495 16.3267C109.803 15.6212 109.957 14.7547 109.957 13.7273ZM114.853 21V6.45455H120.592C121.69 6.45455 122.628 6.65104 123.404 7.04403C124.185 7.43229 124.78 7.9839 125.187 8.69886C125.599 9.40909 125.805 10.2448 125.805 11.206C125.805 12.1719 125.596 13.0028 125.18 13.6989C124.763 14.3902 124.159 14.9205 123.369 15.2898C122.583 15.6591 121.631 15.8438 120.514 15.8438H116.671V13.3722H120.016C120.604 13.3722 121.091 13.2917 121.479 13.1307C121.868 12.9697 122.157 12.7282 122.346 12.4062C122.54 12.0843 122.637 11.6842 122.637 11.206C122.637 10.723 122.54 10.3158 122.346 9.98438C122.157 9.65294 121.865 9.40199 121.472 9.23153C121.084 9.05634 120.594 8.96875 120.002 8.96875H117.928V21H114.853ZM122.708 14.3807L126.323 21H122.928L119.391 14.3807H122.708ZM127.478 21V6.45455H133.302C134.372 6.45455 135.265 6.61316 135.979 6.9304C136.694 7.24763 137.232 7.68797 137.592 8.25142C137.952 8.81013 138.131 9.45407 138.131 10.1832C138.131 10.7514 138.018 11.2509 137.791 11.6818C137.563 12.108 137.251 12.4583 136.853 12.733C136.46 13.0028 136.01 13.1946 135.504 13.3082V13.4503C136.058 13.474 136.576 13.6302 137.059 13.919C137.547 14.2079 137.942 14.6127 138.245 15.1335C138.548 15.6496 138.7 16.2652 138.7 16.9801C138.7 17.7519 138.508 18.4408 138.124 19.0469C137.746 19.6482 137.185 20.1241 136.441 20.4744C135.698 20.8248 134.782 21 133.693 21H127.478ZM130.553 18.4858H133.06C133.917 18.4858 134.542 18.3224 134.935 17.9957C135.328 17.6643 135.525 17.224 135.525 16.6747C135.525 16.2723 135.428 15.9171 135.234 15.6094C135.04 15.3016 134.763 15.0601 134.403 14.8849C134.048 14.7098 133.624 14.6222 133.131 14.6222H130.553V18.4858ZM130.553 12.5412H132.833C133.255 12.5412 133.629 12.4678 133.955 12.321C134.287 12.1695 134.547 11.9564 134.737 11.6818C134.931 11.4072 135.028 11.0781 135.028 10.6946C135.028 10.169 134.841 9.74527 134.467 9.4233C134.097 9.10133 133.572 8.94034 132.89 8.94034H130.553V12.5412ZM143.276 6.45455V21H140.201V6.45455H143.276ZM144.752 8.99006V6.45455H156.698V8.99006H152.245V21H149.205V8.99006H144.752Z" fill="white"/>
<path d="M95.9632 21.1847C95.4944 21.1847 95.0919 21.0189 94.7558 20.6875C94.4243 20.3513 94.2586 19.9489 94.2586 19.4801C94.2586 19.0161 94.4243 18.6184 94.7558 18.2869C95.0919 17.9555 95.4944 17.7898 95.9632 17.7898C96.4177 17.7898 96.8154 17.9555 97.1563 18.2869C97.4972 18.6184 97.6677 19.0161 97.6677 19.4801C97.6677 19.7926 97.5872 20.0791 97.4262 20.3395C97.27 20.5952 97.064 20.8011 96.8083 20.9574C96.5526 21.1089 96.2709 21.1847 95.9632 21.1847Z" fill="#00A2FE"/>
<path fill-rule="evenodd" clip-rule="evenodd" d="M70.5021 17.5C69.8457 17.459 69.7722 17.3809 69.0021 17C67.6758 16.3299 67.5021 15.5 67.1654 14.9506C66.9262 13.856 66.967 12.6783 67.6915 11.6181C68.1993 10.8751 68.8846 10.3444 69.7309 10.122C70.3141 9.91845 71.2864 9.92456 72.5021 10.5C72.7864 10.6346 73.1145 10.6828 73.7721 11.5H77.5021C77.5051 11.4956 77.5105 11.9659 77.5105 11.4874C77.3857 11.2371 77.1844 10.0235 77.0527 9.78066C77.0086 9.69951 76.6493 9.10224 76.5979 9.10224C76.4469 9.10224 75.5428 9.45708 75.4129 9.45708C75.3754 9.45708 74.904 8.90407 74.6836 8.74745C74.729 8.6471 75.0152 7.55086 75.0179 7.42502C74.6955 7.24391 74.0587 6.72709 73.6202 6.61864L73.2028 7.111C73.0767 7.24418 72.8577 7.44637 72.7694 7.58629C72.5823 7.54001 72.4112 7.46225 72.2046 7.4118C71.6608 7.27908 71.875 7.50457 71.5325 6.15764C71.4901 5.99081 71.4682 6.00248 71.2828 6.00339C71.0332 6.00468 70.7833 5.97947 70.6087 6C69.8229 6.09238 69.9369 5.71016 69.6777 7.0137C69.6525 7.14045 69.6183 7.24692 69.6094 7.3605C69.3683 7.36621 68.9171 7.5568 68.6675 7.61856L67.7632 6.67548C67.5169 6.81739 67.2896 6.92521 67.0588 7.072L66.3886 7.5218C66.4849 7.96051 66.656 8.4011 66.7532 8.84423C66.5561 8.98437 66.1035 9.55385 66.0544 9.55385C65.8213 9.55385 65.1138 9.25555 64.839 9.23129C64.6401 9.54665 64.1637 10.2987 64.0794 10.6828C64.1763 10.8364 64.9605 11.5772 64.9605 11.6181C64.9605 11.7498 64.9272 11.8007 64.896 11.9044C64.731 12.4538 64.842 12.6108 64.5919 12.6783C64.2174 12.7793 63.8679 12.8824 63.5021 12.9728C63.5021 13.7112 63.4456 13.6085 63.504 14.4545C63.5111 14.5562 63.5301 14.571 63.5325 14.6824L64.6471 14.9506C64.8298 15.0058 64.7467 15.0271 64.8586 15.4357C64.9131 15.6348 64.9815 15.8233 65.0213 16.0048L64.1327 16.9323C64.1778 17.1119 64.4085 17.5285 64.4987 17.6885C64.6396 17.9382 64.7828 18.1581 64.9302 18.3917C65.2571 18.3108 65.8176 18.0933 66.1759 18.0046C66.2486 18.1504 66.5247 18.4423 66.6621 18.5529C66.6978 18.5817 66.8444 18.6984 66.8444 18.7465C66.8444 18.8157 66.5426 19.9649 66.5102 20.0367L67.1654 20.4701C67.338 20.5813 67.7095 20.794 67.9079 20.8431C68.0556 20.7381 68.7173 19.9077 68.789 19.9077C68.9244 19.9077 69.4195 20.1334 69.7309 20.1334L70.0652 21.4559C70.534 21.4559 71.1125 21.5554 71.6452 21.4236C71.7026 21.2966 71.758 20.9431 71.7971 20.7785C72.0007 19.9201 71.7897 20.2008 72.4316 20.0007C72.5049 19.9779 72.5811 19.9593 72.6675 19.9285C72.7634 19.8943 72.804 19.8647 72.8909 19.8431C73.0386 19.9481 73.7004 20.7786 73.7721 20.7786C73.8713 20.7786 74.0587 20.661 74.1371 20.6177L75.1394 19.9722C75.1394 19.802 75.1071 19.7672 75.0678 19.6289C74.6862 18.2876 74.7464 18.7709 75.1629 18.2876C75.2816 18.1497 75.3553 18.0136 75.504 17.9079L76.412 18.1697C76.5033 18.1982 76.6233 18.2389 76.7194 18.2627C76.7333 18.2076 76.9099 17.9317 77.0906 17.6165C77.2577 17.3253 77.4528 16.2149 77.5021 16H73.7721C73.0021 17 72.0781 17.5 70.5021 17.5Z" fill="white"/>
<path fill-rule="evenodd" clip-rule="evenodd" d="M13.0993 21.4294C11.5409 21.4294 10.5875 21.2957 9.24221 20.6689L7.46497 19.527C6.28501 18.5748 5.14594 16.8307 4.79791 15.2944C4.14371 12.4064 4.74637 10.2588 6.44148 7.97799C6.60009 7.76454 6.74703 7.63981 6.92931 7.45744C7.97419 6.41233 9.23243 5.66047 10.7108 5.29456C13.4724 4.61104 16.1122 5.27281 18.1817 7.11189C18.9888 7.82922 19.7548 8.7306 20.1657 9.74543C20.2571 9.97136 20.3796 10.2098 20.4691 10.4504C21.5707 13.4132 20.7243 16.8595 18.6323 18.9481C17.9825 19.5969 17.9979 19.5518 17.3085 20.0658L16.3219 20.6183C16.0674 20.7262 15.9052 20.8223 15.6246 20.9295C14.8999 21.2067 13.9302 21.4294 13.0992 21.4294L13.0993 21.4294ZM10.7109 2.74707C10.2897 2.75648 9.50157 3.07007 9.06563 3.1717L7.48599 1.61989C7.05589 1.8534 6.65873 2.03082 6.25557 2.27235L5.08502 3.01251C5.25322 3.7344 5.55204 4.45938 5.7219 5.18853C5.37751 5.41915 4.58701 6.35621 4.50113 6.35621C4.094 6.35621 2.85826 5.86536 2.3782 5.82543C2.03073 6.34434 1.19857 7.5818 1.05132 8.2138C1.22057 8.46655 2.59045 9.68561 2.59045 9.75294C2.59045 9.96951 2.53223 10.0533 2.47776 10.224C2.18945 11.128 2.38341 11.3864 1.94655 11.4974C1.29233 11.6636 0.681841 11.8332 0.0428691 11.9821C0.0428691 13.1971 -0.0558458 13.0281 0.0463175 14.4201C0.0586099 14.5875 0.0918978 14.6119 0.0959562 14.7951L2.04295 15.2365C2.36208 15.3273 2.21703 15.3623 2.41242 16.0346C2.50767 16.3623 2.62707 16.6724 2.69665 16.9711L1.14438 18.4972C1.22325 18.7927 1.6262 19.4783 1.7838 19.7416C2.02979 20.1524 2.28002 20.5143 2.53744 20.8986C3.10852 20.7656 4.08755 20.4076 4.71346 20.2617C4.84034 20.5016 5.32266 20.9819 5.56267 21.164C5.62511 21.2113 5.88112 21.4033 5.88112 21.4825C5.88112 21.5964 5.35393 23.4874 5.29725 23.6054L6.44174 24.3186C6.74333 24.5017 7.39227 24.8516 7.73873 24.9323C7.99676 24.7596 9.15269 23.3932 9.27787 23.3932C9.5144 23.3932 10.3793 23.7647 10.9232 23.7647L11.507 25.9408C12.326 25.9408 13.3364 26.1044 14.2669 25.8877C14.3673 25.6786 14.4641 25.0969 14.5323 24.8261C14.8879 23.4136 14.5193 23.8755 15.6407 23.5462C15.7687 23.5086 15.9018 23.4782 16.0526 23.4275C16.2202 23.3711 16.2911 23.3224 16.4429 23.287C16.701 23.4598 17.8569 24.8262 17.9822 24.8262C18.1554 24.8262 18.4828 24.6328 18.6197 24.5615L20.3705 23.4993C20.3705 23.2193 20.3141 23.162 20.2454 22.9344C19.5788 20.7274 19.684 21.5227 20.4114 20.7273C20.6188 20.5005 20.7476 20.2764 21.0074 20.1025L22.5934 20.5333C22.7528 20.5802 22.9625 20.6472 23.1303 20.6864C23.1771 20.5111 24.2866 18.9771 24.4572 18.2449L23.0937 16.9547C22.9863 16.8644 22.9786 16.8349 22.865 16.7588C22.9865 16.2372 23.2405 15.6495 23.2896 15.0604L25.4656 14.4766L25.4126 11.7167C24.6955 11.5497 23.9535 11.353 23.2365 11.1859C23.2274 10.7772 22.8119 9.62628 22.8119 9.5937C22.8119 9.37548 24.1516 8.24639 24.3511 7.94844C24.1331 7.53654 23.9426 7.12907 23.7124 6.72944C23.6355 6.59592 23.0079 5.61311 22.9181 5.61311C22.6543 5.61311 21.075 6.19697 20.8481 6.19697C20.7826 6.19697 19.9592 5.287 19.5744 5.02929C19.6535 4.86418 20.1535 3.06031 20.1582 2.85327C19.595 2.55525 18.4827 1.70484 17.7167 1.52639L16.9877 2.33656C16.7674 2.55569 16.3848 2.88839 16.2306 3.11863C15.9037 3.04249 15.605 2.91454 15.244 2.83152C14.2941 2.61312 14.6683 2.98417 14.0701 0.767822C13.996 0.49333 13.9577 0.512496 13.6339 0.513997C13.1979 0.516132 12.7614 0.474633 12.4564 0.508414C11.0838 0.660427 11.283 0.0314953 10.8302 2.17643C10.7862 2.385 10.7264 2.56019 10.7108 2.74709L10.7109 2.74707Z" fill="#00A2FE"/>
<path fill-rule="evenodd" clip-rule="evenodd" d="M12.6747 6.14389C14.5522 6.14389 16.288 6.856 17.5981 8.06718C18.7807 9.16055 19.7867 11.1616 19.7867 12.7782C19.7867 14.1564 19.7161 15.0543 19.097 16.2814C17.855 18.7428 15.6371 20.2617 12.5155 20.2617C9.93938 20.2617 7.22705 18.4219 6.28262 16.0389C6.00785 15.3456 5.80814 14.7683 5.72948 13.9914L5.66995 13.1543C5.68048 12.9549 5.71013 13.0102 5.72146 12.7778C5.76648 11.8553 5.91504 11.1519 6.32351 10.3015C6.43871 10.0616 6.46199 9.9578 6.60089 9.72962C7.39004 8.4334 8.40778 7.40984 9.80926 6.78133C10.5324 6.45713 11.6366 6.14389 12.6747 6.14389H12.6747ZM12.6747 21.0048C14.7737 21.0048 16.1374 20.3921 17.6342 19.2768C19.2028 18.1079 20.5298 15.6157 20.5298 13.6805C20.5298 12.1789 20.4426 11.1608 19.7692 9.82364C19.5429 9.37429 19.337 9.00934 19.0514 8.63071C16.8115 5.66199 13.0904 4.55929 9.58082 6.07525C9.06083 6.29984 8.19435 6.82002 7.77894 7.19252L6.3811 8.71378C5.4606 9.98619 5.03421 11.4347 4.93327 13.1578C4.84506 14.6639 5.6645 16.9795 6.71785 18.1513C6.8876 18.3401 7.01371 18.5034 7.19444 18.6831C8.39077 19.8725 10.3111 21.0048 12.6747 21.0048H12.6747Z" stroke="#3B82F6" stroke-width="0.674935" stroke-miterlimit="22.9256"/>
<path d="M9.58105 6.07626C13.0901 4.56055 16.8112 5.66275 19.0508 8.63095C19.3364 9.0095 19.5423 9.37499 19.7686 9.82431C20.4417 11.1611 20.5283 12.1793 20.5283 13.6808C20.5283 14.6481 20.1967 15.7549 19.6689 16.7657C19.1413 17.7764 18.4177 18.6912 17.6338 19.2755C16.1372 20.3907 14.7734 21.004 12.6748 21.004C10.3118 21.004 8.3915 19.8718 7.19531 18.6827C7.01462 18.5031 6.88856 18.3394 6.71875 18.1505C6.19221 17.5647 5.72391 16.6929 5.39844 15.7794C5.07306 14.8661 4.89058 13.911 4.93457 13.1583C5.03549 11.4356 5.4617 9.98702 6.38184 8.71494L7.78027 7.19345L7.7793 7.19247C8.19463 6.82013 9.06123 6.30082 9.58105 6.07626ZM12.2832 6.15634C11.3663 6.22073 10.4414 6.49663 9.80859 6.78036C8.40701 7.40897 7.38881 8.43237 6.59961 9.72861C6.46068 9.95685 6.43739 10.0611 6.32227 10.3009C5.91378 11.1513 5.76575 11.8549 5.7207 12.7774C5.71504 12.8935 5.70446 12.9385 5.69434 12.9786C5.68422 13.0186 5.6742 13.055 5.66895 13.1544L5.72852 13.9913C5.80718 14.7683 6.00651 15.3459 6.28125 16.0392C7.22586 18.4226 9.93904 20.2628 12.5156 20.2628C15.6375 20.2627 17.8555 18.7438 19.0977 16.2823C19.7169 15.055 19.7881 14.1566 19.7881 12.7784C19.7881 11.9699 19.5361 11.0648 19.1367 10.2257C18.7373 9.38668 18.19 8.61323 17.5986 8.0665C16.3704 6.93093 14.7681 6.23422 13.0254 6.15146L12.6748 6.14267L12.2832 6.15634Z" fill="#00A2FE" stroke="#3B82F6" stroke-width="0.00234588"/>
<path fill-rule="evenodd" clip-rule="evenodd" d="M6.14648 12.8314C6.42288 12.6463 6.8087 11.9397 8.12695 11.1497C8.42476 10.9713 8.632 10.8594 8.9741 10.7231C9.54699 10.4948 10.2648 10.2894 10.9789 10.2333C11.7159 10.1755 12.7061 10.2307 13.4708 10.2307C13.3417 9.8741 12.0405 9.21875 11.7424 9.09313C10.5283 8.58161 9.49847 8.47968 8.19932 8.67444C7.74251 8.74292 7.62132 9.04673 7.28314 9.50974C7.16148 9.67625 7.03175 9.89796 6.94193 10.0708C6.53874 10.8464 6.23727 11.7406 6.14648 12.8314Z" stroke="#3B82F6" stroke-width="0.674935" stroke-miterlimit="22.9256"/>
<path d="M8.19922 8.67596C9.49818 8.48124 10.5284 8.5825 11.7422 9.09393C11.8913 9.15677 12.2905 9.35241 12.6689 9.57635C12.8583 9.6884 13.0428 9.80758 13.1875 9.92108C13.2599 9.97783 13.3226 10.0329 13.3711 10.0851C13.4187 10.1364 13.4523 10.185 13.4688 10.2287C12.7045 10.2286 11.7149 10.1749 10.9785 10.2326C10.2643 10.2887 9.5465 10.4936 8.97363 10.7219C8.63146 10.8582 8.42382 10.9702 8.12598 11.1486C7.4669 11.5436 7.04093 11.9184 6.74512 12.217C6.59744 12.366 6.48224 12.4963 6.38672 12.6008C6.29203 12.7043 6.21586 12.7819 6.14746 12.8283C6.23855 11.7391 6.54062 10.8462 6.94336 10.0715C7.03317 9.89867 7.16258 9.67638 7.28418 9.50995C7.36858 9.39438 7.43991 9.28903 7.50586 9.19452C7.57191 9.09986 7.63248 9.01565 7.69727 8.94452C7.82671 8.8024 7.97133 8.71019 8.19922 8.67596Z" fill="#E6E6E6" stroke="#3B82F6" stroke-width="0.00234588"/>
<path fill-rule="evenodd" clip-rule="evenodd" d="M12.3568 19.7841C12.107 19.411 11.0719 18.8844 10.2561 16.9488C9.67943 15.5801 9.7561 14.3912 9.7561 12.5128C9.57248 12.5793 9.58677 12.6663 9.37193 12.9248C8.47055 14.0092 8.01702 15.9056 8.17131 17.3883C8.18304 17.501 8.24584 17.9694 8.29881 18.0569C8.33205 18.1117 8.68923 18.4169 8.74685 18.4581C9.73792 19.1676 11.0465 19.7841 12.3568 19.7841H12.3568Z" stroke="#3B82F6" stroke-width="0.674935" stroke-miterlimit="22.9256"/>
<path d="M9.75391 12.5138C9.75388 14.3916 9.67816 15.5807 10.2549 16.9494C10.6628 17.9172 11.1256 18.533 11.5176 18.9533C11.7136 19.1634 11.8922 19.3251 12.0371 19.4572C12.1808 19.5881 12.2919 19.6899 12.3545 19.7824C11.0453 19.7817 9.73745 19.1662 8.74707 18.4572C8.71793 18.4362 8.61491 18.3498 8.51465 18.2619C8.4644 18.2178 8.415 18.1728 8.37598 18.1359C8.36562 18.1261 8.35635 18.1162 8.34766 18.1076C8.33416 18.0943 8.32284 18.0828 8.31445 18.0734C8.30789 18.066 8.30244 18.0602 8.2998 18.0558C8.29332 18.045 8.28603 18.0282 8.2793 18.007C8.27254 17.9857 8.26648 17.9596 8.25977 17.9308C8.24627 17.8729 8.23258 17.8026 8.2207 17.7316C8.19694 17.5896 8.17871 17.4441 8.17285 17.3878C8.01868 15.9055 8.47205 14.0101 9.37305 12.9259C9.48048 12.7967 9.53101 12.7099 9.57715 12.6476C9.60019 12.6166 9.62174 12.5909 9.64941 12.5695C9.67666 12.5484 9.70928 12.5302 9.75391 12.5138Z" fill="#E6E6E6" stroke="#3B82F6" stroke-width="0.00234588"/>
<path fill-rule="evenodd" clip-rule="evenodd" d="M13.0465 19.784C14.2371 19.784 15.4291 19.3121 16.3481 18.7335C16.5643 18.5974 17.0067 18.2747 17.1333 18.0857L16.1248 18.1388C14.1325 18.1388 12.5072 17.2018 11.2818 15.9759C11.0651 15.7592 10.34 15.2457 10.1168 15.186C10.1015 15.379 10.1762 16.7758 11.4454 18.3599C11.7443 18.733 12.7958 19.784 13.0465 19.784Z" stroke="#3B82F6" stroke-width="0.674935" stroke-miterlimit="22.9256"/>
<path d="M10.1182 15.187C10.1739 15.2023 10.2605 15.2458 10.3623 15.3052C10.465 15.365 10.5832 15.4416 10.7012 15.5229C10.9374 15.6859 11.173 15.8688 11.2812 15.9771C12.5068 17.2029 14.1324 18.1401 16.125 18.1401L17.1309 18.0864C17.0672 18.1806 16.926 18.3076 16.7734 18.4282C16.62 18.5495 16.4557 18.6649 16.3477 18.7329C15.4288 19.3113 14.237 19.7826 13.0469 19.7827C13.0159 19.7827 12.9722 19.7662 12.9189 19.7368C12.8657 19.7074 12.8026 19.665 12.7334 19.6128C12.595 19.5085 12.4304 19.366 12.2646 19.2114C11.9331 18.902 11.5957 18.5454 11.4463 18.3589C10.1793 16.7774 10.1033 15.3829 10.1182 15.187Z" fill="#E6E6E6" stroke="#3B82F6" stroke-width="0.00234588"/>
<path fill-rule="evenodd" clip-rule="evenodd" d="M7.84481 17.6081C7.84481 17.2679 7.79179 17.1696 7.79179 16.865C7.79179 15.7276 8.08505 14.4403 8.6175 13.4979C8.70708 13.3394 8.76965 13.2427 8.85546 13.0989C9.49744 12.0232 10.7552 11.1171 11.1355 10.5491C9.71431 10.5808 8.04592 11.3765 7.03515 12.3932L6.23189 13.3439C6.08272 13.5606 6.15467 13.4302 6.20344 14.0481C6.30387 15.3217 7.0267 16.6668 7.84481 17.608V17.6081Z" stroke="#3B82F6" stroke-width="0.674935" stroke-miterlimit="22.9256"/>
<path d="M11.1328 10.5501C11.0377 10.6915 10.8886 10.8546 10.708 11.0354C10.5267 11.217 10.3138 11.4172 10.0928 11.6331C9.65068 12.065 9.17552 12.5601 8.85449 13.0979C8.7687 13.2417 8.70581 13.3388 8.61621 13.4973C8.08369 14.44 7.79102 15.728 7.79102 16.8655C7.79104 17.0174 7.80416 17.118 7.81738 17.2229C7.83055 17.3274 7.8426 17.4367 7.84277 17.6048C7.02583 16.6638 6.30541 15.3201 6.20508 14.0481C6.19288 13.8936 6.17924 13.7854 6.16797 13.7073C6.15671 13.6294 6.14724 13.581 6.14453 13.5452C6.14186 13.5097 6.14588 13.4868 6.15918 13.4593C6.17256 13.4315 6.1953 13.3989 6.23242 13.345L7.03613 12.3938C8.04609 11.3781 9.71263 10.5827 11.1328 10.5501Z" fill="#E6E6E6" stroke="#3B82F6" stroke-width="0.00234588"/>
<path fill-rule="evenodd" clip-rule="evenodd" d="M14.373 15.8566C14.8005 15.8566 15.4829 15.7001 15.8134 15.5985C17.157 15.1855 18.5186 14.2127 19.2614 13.0456C19.5666 12.5661 18.8347 10.5403 18.4174 9.84848C18.2707 9.60512 17.8771 8.99355 17.6637 8.85071C17.6637 10.9548 17.5422 12.1455 16.2543 13.8633C15.8215 14.4405 14.593 15.5282 14.3731 15.8566L14.373 15.8566Z" stroke="#3B82F6" stroke-width="0.674935" stroke-miterlimit="22.9256"/>
<path d="M17.6641 8.85266C17.717 8.8884 17.781 8.9528 17.8496 9.03333C17.9188 9.1145 17.9928 9.21207 18.0645 9.31262C18.2077 9.51353 18.3426 9.72702 18.416 9.84875C18.6246 10.1946 18.9124 10.8747 19.1094 11.5275C19.2078 11.8537 19.2832 12.1736 19.3154 12.4415C19.3315 12.5754 19.3375 12.6965 19.3291 12.799C19.3207 12.9014 19.2987 12.9854 19.2607 13.045C18.5182 14.2119 17.1568 15.1848 15.8135 15.5978C15.4835 15.6992 14.8024 15.8541 14.375 15.8546C14.4305 15.7725 14.5487 15.6442 14.7002 15.4884C14.8529 15.3314 15.0402 15.1466 15.2344 14.9542C15.6229 14.5693 16.0383 14.153 16.2549 13.8644C16.8989 13.0054 17.2519 12.2777 17.4434 11.5021C17.6346 10.727 17.664 9.90371 17.6641 8.85266Z" fill="#E6E6E6" stroke="#3B82F6" stroke-width="0.00234588"/>
<path fill-rule="evenodd" clip-rule="evenodd" d="M8.37598 8.31992L9.54364 8.2669C10.9821 8.2669 12.7538 9.06319 13.6178 9.87172C13.737 9.98332 13.7805 10.0489 13.9182 10.1551C14.3779 10.5103 14.9811 11.2891 15.3819 11.5575C15.3819 10.0992 14.516 8.4329 13.5391 7.45593C13.3788 7.29561 13.2556 7.21778 13.0863 7.05948C12.5044 6.51523 12.4021 6.61718 11.8786 6.67426C10.8641 6.78484 8.87832 7.5698 8.37602 8.31992H8.37598Z" stroke="#3B82F6" stroke-width="0.674935" stroke-miterlimit="22.9256"/>
<path d="M12.46 6.64206C12.6234 6.67739 12.795 6.78791 13.0859 7.06003C13.1706 7.13918 13.2435 7.199 13.3154 7.25827C13.3873 7.31743 13.4582 7.3766 13.5381 7.45651C14.5141 8.43257 15.3786 10.097 15.3799 11.5542C15.1801 11.4195 14.93 11.1595 14.6729 10.8882C14.4145 10.6155 14.1489 10.3314 13.9189 10.1538C13.8503 10.1008 13.8046 10.0577 13.7617 10.0141C13.7189 9.97065 13.6777 9.92625 13.6182 9.87057C13.1861 9.46635 12.5274 9.06518 11.7969 8.76511C11.0662 8.46497 10.2633 8.26614 9.54395 8.26608L8.37793 8.31784C8.5036 8.13129 8.72175 7.94315 8.99316 7.76315C9.26572 7.58242 9.59261 7.41015 9.93555 7.25827C10.6215 6.95447 11.3718 6.73054 11.8789 6.67526C11.9441 6.66815 12.0028 6.65997 12.0566 6.6528C12.1105 6.64564 12.1601 6.63976 12.2061 6.63522C12.2981 6.62616 12.3784 6.62449 12.46 6.64206Z" fill="#E6E6E6" stroke="#3B82F6" stroke-width="0.00234588"/>
<path fill-rule="evenodd" clip-rule="evenodd" d="M12.0381 16.175C12.0951 16.3325 12.1697 16.3543 12.3862 16.5169C13.7177 17.5164 15.3137 17.9637 17.0653 17.7523C17.5979 17.688 17.7116 17.6363 18.1321 17.0147C18.2772 16.8001 18.364 16.6607 18.4971 16.4243C18.9088 15.6929 19.3093 14.688 19.3093 13.5743L18.738 14.2237C17.7278 15.2338 16.0233 16.0987 14.5329 16.1754C13.747 16.2158 12.8378 16.1751 12.0381 16.1751L12.0381 16.175Z" stroke="#3B82F6" stroke-width="0.674935" stroke-miterlimit="22.9256"/>
<path d="M19.3076 13.5773C19.307 14.5502 19.0014 15.4401 18.6494 16.1368L18.4961 16.424C18.3631 16.6603 18.2759 16.7994 18.1309 17.0138C17.9206 17.3246 17.787 17.4934 17.6396 17.5919C17.4925 17.6901 17.3313 17.719 17.0654 17.7511C15.3141 17.9625 13.7179 17.5151 12.3867 16.5157C12.3496 16.4879 12.3165 16.4645 12.2871 16.4435C12.2626 16.426 12.2416 16.4091 12.2217 16.3947C12.1958 16.3758 12.1729 16.3597 12.1533 16.3429C12.1009 16.2978 12.0674 16.2538 12.0391 16.1759C12.8385 16.1759 13.7476 16.2173 14.5332 16.1769C16.0238 16.1001 17.729 15.2349 18.7393 14.2247L19.3076 13.5773Z" fill="#E6E6E6" stroke="#3B82F6" stroke-width="0.00234588"/>
<path fill-rule="evenodd" clip-rule="evenodd" d="M15.753 13.9459C17.0311 12.4754 17.5695 10.6039 17.2717 8.65884C17.2065 8.23295 16.9363 8.08258 16.4325 7.74655C15.5427 7.15316 14.2146 6.62158 13.1523 6.62158C13.2241 6.8199 13.1251 6.62911 13.2657 6.77359C13.3105 6.8196 13.3764 6.87785 13.4307 6.92706C13.7949 7.25725 14.007 7.43743 14.3353 7.88003C14.6954 8.36528 15.0125 8.85268 15.2538 9.45604C15.8097 10.8463 15.753 12.0595 15.753 13.9459H15.753Z" stroke="#3B82F6" stroke-width="0.674935" stroke-miterlimit="22.9256"/>
<path d="M13.1533 6.62256C14.2151 6.62288 15.5422 7.15447 16.4316 7.74756C16.6834 7.9155 16.8771 8.0368 17.0156 8.16943C17.1541 8.30203 17.2379 8.4462 17.2705 8.65869C17.568 10.6022 17.0301 12.4721 15.7539 13.9419C15.754 12.0578 15.8105 10.8451 15.2549 9.45557C15.0135 8.8521 14.696 8.36467 14.3359 7.87939C14.0076 7.43683 13.7957 7.25635 13.4316 6.92627C13.3774 6.87707 13.3113 6.8189 13.2666 6.77295C13.2314 6.73682 13.211 6.72096 13.1992 6.71533C13.1934 6.7126 13.1892 6.71264 13.1865 6.71338C13.1849 6.71388 13.1833 6.71436 13.1826 6.71533C13.1823 6.71373 13.1824 6.71143 13.1816 6.7085C13.1786 6.69628 13.171 6.67138 13.1533 6.62256ZM13.1934 6.71631C13.187 6.71437 13.1857 6.71539 13.1846 6.71729C13.185 6.7165 13.1862 6.7157 13.1875 6.71533C13.1888 6.71503 13.1906 6.71548 13.1934 6.71631Z" fill="#E6E6E6" stroke="#3B82F6" stroke-width="0.00234588"/>
</svg>
