<svg width="30" height="30" viewBox="0 0 30 30" fill="none" xmlns="http://www.w3.org/2000/svg">
<path d="M7.19238 15.9336L10.0596 23.8696C10.0596 23.8696 10.418 24.6121 10.8019 24.6121C11.1857 24.6121 16.8949 18.6727 16.8949 18.6727L23.2437 6.41016L7.29469 13.8851L7.19238 15.9336Z" fill="#C8DAEA"/>
<path d="M10.9936 17.9688L10.4432 23.8183C10.4432 23.8183 10.2128 25.6107 12.0048 23.8183C13.7968 22.0259 15.512 20.6438 15.512 20.6438" fill="#A9C6D8"/>
<path d="M7.24404 16.2169L1.34617 14.2953C1.34617 14.2953 0.641306 14.0093 0.868271 13.3608C0.914993 13.2271 1.00924 13.1133 1.29119 12.9178C2.598 12.0069 25.4792 3.78275 25.4792 3.78275C25.4792 3.78275 26.1253 3.56505 26.5063 3.70985C26.6005 3.73903 26.6854 3.79272 26.7521 3.86544C26.8188 3.93816 26.865 4.02728 26.8859 4.12371C26.9271 4.29401 26.9443 4.46923 26.9371 4.6443C26.9352 4.79574 26.9169 4.93611 26.903 5.15623C26.7637 7.40473 22.5933 24.1861 22.5933 24.1861C22.5933 24.1861 22.3438 25.168 21.4498 25.2017C21.2301 25.2088 21.0112 25.1716 20.8062 25.0923C20.6012 25.013 20.4143 24.8932 20.2566 24.7401C18.5023 23.2311 12.4389 19.1562 11.099 18.26C11.0688 18.2394 11.0434 18.2126 11.0244 18.1813C11.0054 18.15 10.9934 18.1151 10.9891 18.0787C10.9703 17.9843 11.073 17.8673 11.073 17.8673C11.073 17.8673 21.6311 8.48257 21.912 7.49737C21.9338 7.42105 21.8516 7.38339 21.7412 7.41682C21.04 7.6748 8.88375 15.3515 7.5421 16.1988C7.44552 16.228 7.34345 16.2342 7.24404 16.2169Z" fill="white"/>
</svg>
